<svg xmlns="http://www.w3.org/2000/svg" width="93.333" height="93.333" preserveAspectRatio="xMidYMid meet" version="1.0" viewBox="0 0 70 70"><metadata>Created by potrace 1.14, written by Peter Selinger 2001-2017</metadata><g fill="#000" stroke="none"><path d="M302 608 c-17 -13 -30 -28 -27 -35 2 -6 -1 -13 -7 -15 -18 -6 -1 -52 31 -84 36 -34 39 -48 10 -39 -32 11 -77 -38 -85 -92 -3 -24 -10 -46 -15 -49 -5 -3 -7 -9 -4 -13 2 -5 -6 -24 -18 -42 -20 -30 -28 -34 -72 -36 -28 -1 -58 -2 -67 -2 -18 -1 -48 -27 -48 -41 0 -15 53 -61 89 -77 46 -20 86 -26 156 -25 33 0 83 0 110 0 185 -1 206 0 222 14 7 6 13 8 13 4 0 -4 14 1 31 10 32 16 79 61 79 75 0 17 -33 39 -58 40 -106 3 -105 3 -129 38 -13 19 -21 41 -19 48 3 7 2 13 -3 13 -5 0 -12 19 -15 43 -11 67 -73 120 -98 83 -5 -7 -8 -6 -8 4 0 9 14 28 31 43 17 14 28 31 24 37 -3 5 -1 10 4 10 22 0 10 40 -23 74 -39 42 -59 44 -104 14z m78 -38 c26 -26 25 -35 -5 -67 l-24 -27 -26 28 c-31 33 -31 43 -3 67 27 24 33 24 58 -1z m-86 -204 c-3 -14 -9 -26 -13 -26 -4 0 -8 -10 -9 -22 -1 -13 -5 -42 -8 -66 -4 -24 -2 -48 4 -55 6 -7 7 -18 3 -25 -6 -10 -13 -11 -34 -1 -31 14 -33 22 -12 42 8 8 11 17 8 21 -3 3 -1 11 5 18 5 7 13 31 17 53 4 22 12 46 18 53 5 6 6 12 3 12 -4 0 -1 6 6 14 17 19 20 14 12 -18z m146 -43 c0 -12 5 -25 10 -28 6 -4 8 -11 4 -16 -3 -5 0 -16 6 -24 7 -8 9 -15 5 -15 -4 0 0 -10 8 -23 10 -15 12 -29 6 -38 -5 -8 -9 -10 -9 -4 0 5 -5 4 -12 -3 -17 -17 -25 -15 -31 8 -3 11 -1 20 5 20 9 0 9 15 -4 110 -2 14 -6 27 -10 30 -3 3 -9 19 -13 35 l-7 30 21 -30 c11 -16 21 -40 21 -52z m-71 35 c8 -18 13 -37 12 -42 -1 -4 3 -13 8 -20 9 -10 8 -53 -1 -116 -2 -8 -10 -23 -19 -32 -16 -15 -18 -15 -34 2 -9 10 -17 24 -19 32 -1 7 -4 18 -7 23 -9 15 -9 78 0 90 4 5 13 29 20 53 6 23 15 42 19 42 4 0 14 -15 21 -32z m-210 -209 c8 5 36 -3 74 -23 l62 -31 -54 -3 c-30 -2 -57 1 -60 5 -3 5 -13 9 -21 9 -22 -1 -100 32 -100 42 0 4 5 13 12 20 9 9 19 7 43 -8 18 -11 36 -16 44 -11z m481 -1 c0 -8 -64 -37 -92 -41 -10 -2 -21 -6 -24 -10 -12 -11 -116 -8 -109 3 4 6 10 8 15 5 4 -3 10 -2 12 2 7 17 85 51 98 43 8 -5 27 -1 49 11 34 18 50 14 51 -13z" transform="translate(0.000000,70.000000) scale(0.100000,-0.100000)"/></g></svg>